<svg id="Layer_1" style="fill:white" height="512" viewBox="0 0 512 512" width="512" xmlns="http://www.w3.org/2000/svg" data-name="Layer 1"><path d="m228.223 444.618a6 6 0 0 0 6-6v-24.59a6 6 0 0 0 -12 0v24.59a6 6 0 0 0 6 6z"/><path d="m22.33 439.583h.107l7.428-.133a17.242 17.242 0 0 0 -6.086 20.577 17.35 17.35 0 0 0 22.537 9.589l34.431-13.809a66.258 66.258 0 0 0 15.235 16.929 63.541 63.541 0 0 0 34.263 13.472l292.444-40.8a22.407 22.407 0 0 0 17.352-13.493 115.014 115.014 0 0 0 44.827-40.682 6.005 6.005 0 1 0 -10.107-6.488 102.289 102.289 0 0 1 -33.7 32.856 22.144 22.144 0 0 0 -18.228-16.321l-146.75-22.175c-6.664-14.04-10.074-35.632-10.567-51.583 20.822-20.812 27.667-41.872 29.471-57.132a84.3 84.3 0 0 0 .311-16.669 115.537 115.537 0 0 1 36.031-23.778c6.531 7.564 15.119 13.254 25.688 16.993a147.04 147.04 0 0 0 -16.253 9.114c-11.9 7.705-12.57 18.05-11.911 23.529a10.469 10.469 0 0 0 14.492 8.421 44.306 44.306 0 0 1 22.695-3.177c12.467 1.632 21.593-2.145 27.521-6.2a39.3 39.3 0 0 0 19.071 20.977 44.073 44.073 0 0 1 16.678 15.652 10.342 10.342 0 0 0 7.919 4.913c.332.03.663.046.991.046a10.449 10.449 0 0 0 7.786-3.47c3.711-4.094 9.153-12.927 3.9-26.075a145.963 145.963 0 0 0 -7.994-16.809c10.9 3.069 21.311 3.351 31.109.862 15.226 21.022 20.75 44.579 16.5 70.258a6 6 0 0 0 5.916 7h.014a5.991 5.991 0 0 0 5.92-4.966c4.69-27.868-.922-53.567-16.757-76.674a62.2 62.2 0 0 0 20.818-17.64 7.65 7.65 0 0 0 -8.388-11.927c-5.967 1.868-17.374 3.739-26.717-4.738-15.087-13.689-30.48-14.684-40.3-13.333a149.182 149.182 0 0 0 2.624-26.032 50.9 50.9 0 0 0 29.559-16.847q.519-.606 1.022-1.236c14.808-18.535 10.617-47.922-9.152-64.171a12.04 12.04 0 0 1 -3.069-3.646l-.14-.265a12.9 12.9 0 0 1 -.522-10.539c8.818-23.484 2.536-49.82-15.276-64.043-18.639-14.884-45.063-15.215-65.754-.824a11.189 11.189 0 0 1 -8.3 1.9 11.774 11.774 0 0 1 -4.26-1.681c-20.479-12.809-46.9-8.88-61.455 9.136-.337.418-.667.84-.985 1.263a44.405 44.405 0 0 0 -5.627 43.894 46.49 46.49 0 0 0 13.913 18.719c.9 6.279 2.484 26.882-9.879 53.105-.721-.814-1.4-1.54-2.028-2.168 8.4-24.577 2.009-50.188-18.641-74.333a53.817 53.817 0 0 0 -71.679-9.3c-25.883 17.886-38.642 40.72-37.144 66.3-12.613 4.744-30 16.779-34.094 38.5-14.7-17.979-37.434-26.666-66.442-25.223a53.638 53.638 0 0 0 -51.122 50.981c-1.576 31.387 8.816 55.411 30.101 69.823-2.258 7.7-5.152 23.223 1.843 38.483 6.162 13.444 18.38 23.375 36.338 29.55a131.9 131.9 0 0 0 15.51 28.7 66.69 66.69 0 0 0 -14.43 16.07l-34.622-13.89a17.365 17.365 0 0 0 -22.537 9.589 17.269 17.269 0 0 0 6.149 20.633l-7.474-.154h-.124a17.3 17.3 0 1 0 0 34.591zm439.931-194.673a35.714 35.714 0 0 0 25.038 9.471c-10.448 8.584-27.155 15.084-51.284 4.64a8.082 8.082 0 0 0 -9.942 11.909 130.747 130.747 0 0 1 12.69 24.183c1.886 4.72 1.75 8.664-.427 11.992a55.29 55.29 0 0 0 -20.122-18.131c-13.665-7.182-14.932-19.258-15.048-21.6a6.217 6.217 0 0 0 -11.175-3.443c-1.4 1.853-9.141 11-24.394 9a55.447 55.447 0 0 0 -26.916 3.214c.16-3.96 2.336-7.251 6.606-10.016a131.38 131.38 0 0 1 24.375-12.439 8.079 8.079 0 0 0 -1.246-15.461c-25.756-5.368-35.622-20.3-39.171-33.326a35.786 35.786 0 0 0 25.955 6.706c10.565-1.3 19.825.129 27.523 4.242a31.393 31.393 0 0 1 7.059 5.076c-.607 5.944-1.361 11.045-1.975 14.4a6 6 0 0 0 11.8 2.162c.35-1.912 8.325-46.355-2.017-68.922a77.025 77.025 0 0 0 9.162-2.826 59.47 59.47 0 0 1 7.219-2.238c4.158 7.444 9.845 47.332-5.051 80.614a6 6 0 1 0 10.953 4.9 111.922 111.922 0 0 0 4.983-13.45c5.606-1.622 20.573-4.114 35.405 9.343zm-98.061-45.752a66.093 66.093 0 0 1 27.72-13.468 123.227 123.227 0 0 1 .847 20.948c-6.293-3.868-15.687-7.538-28.567-7.48zm-64.4-114.09a32.1 32.1 0 0 1 4.1-32.139q.357-.474.733-.94c10.57-13.082 30.669-15.937 45.758-6.5a23.7 23.7 0 0 0 8.614 3.338 23.13 23.13 0 0 0 17.159-3.878c16.3-11.334 36.958-11.193 51.414.35 13.8 11.021 18.544 31.767 11.53 50.448a24.9 24.9 0 0 0 1.139 20.349l.14.265a23.935 23.935 0 0 0 6.065 7.324c14.559 11.966 18.016 34.121 7.4 47.408-.251.314-.5.622-.765.925a39.306 39.306 0 0 1 -20.776 12.51c-.781-11.173-2.8-20.28-5.195-25.446-1.869-4.031-4.194-6.4-7.107-7.241-4.368-1.265-9.416.523-15.262 2.592-1.841.651-3.719 1.315-5.456 1.826-4.473-5.545-3.277-11.01-2.4-12.135a7.717 7.717 0 0 0 -4.921-12.612c-24.293-3.195-32.48-18.474-35.2-27.3a7.729 7.729 0 0 0 -13.406-2.558c-2.33 2.883-7.086 6.022-16.509 4.6a34.484 34.484 0 0 1 -27.055-21.186zm85.1 68.944-19.474 1.552 13.448-14.676q2.781.879 5.857 1.545a22.705 22.705 0 0 0 .169 11.579zm-33.186-32.961-14.028 17.5.611-20.677a26.188 26.188 0 0 0 9.361-4.01 50.98 50.98 0 0 0 4.059 7.187zm-36.535-5.537a47.812 47.812 0 0 0 9.894 2.609c.41.061.806.106 1.207.155l-.776 26.246a9.877 9.877 0 0 0 17.588 6.476l16.652-20.773a49.358 49.358 0 0 0 7.565 5.527l-11.909 13a11.314 11.314 0 0 0 8.327 18.956q.454 0 .913-.037l22.707-1.81a10.929 10.929 0 0 0 .985 6.977c.195.387.375.8.556 1.208a77.058 77.058 0 0 0 -41.853 25.2c-7.238-1.721-12.461-6.61-15.853-11.053a7.655 7.655 0 0 0 -13.738 4.891 61.836 61.836 0 0 0 6.978 26.768 128.212 128.212 0 0 0 -31.516 19.814c-.221-.817-.436-1.558-.635-2.2 6.137-9.25 11.961-21.059 13.538-34.033 17.023-16.524 21.7-39.283 21.893-40.272l-11.77-2.342a77.49 77.49 0 0 1 -10.868 24.846 51.574 51.574 0 0 0 -4.609-12.9c12.929-24.195 15.016-44.942 14.727-57.253zm-144.052 36.477a6 6 0 0 0 4.482-6.588c-3-23.187 7.626-43.341 31.592-59.9a41.85 41.85 0 0 1 55.738 7.225c18.915 22.119 24.017 44.311 15.164 65.96a6 6 0 0 0 1.925 7.049 41.364 41.364 0 0 1 11.728 16.988c5.567 15.113 1.85 32.068-11.05 50.4a6 6 0 0 0 -.629 5.77c.051.122 5.083 12.407 2.992 30.1-2.443 20.666-13.256 39.39-32.175 55.8.131-24.614-5.168-52.614-24.812-73.291a77.105 77.105 0 0 0 -11.982-10.277c2.009-8.468 4.092-16.8 6.185-24.867 9.252-3.216 34.842-13.786 42.855-34.553a6 6 0 0 0 -11.2-4.32c-4.674 12.114-18.2 20.1-27.828 24.437 10.924-40.3 21.05-70.752 21.185-71.156a6 6 0 1 0 -11.382-3.8c-.138.412-10.538 31.686-21.675 72.89-7.011-8.587-16.163-24.214-11.232-43.441a6 6 0 0 0 -11.624-2.982c-7.728 30.134 11.576 52.7 19.208 60.2-1.8 6.941-3.592 14.078-5.337 21.329a64.706 64.706 0 0 0 -7.066-2.838c-5.835-16.891-17.433-37.142-40.187-44.26a54.344 54.344 0 0 0 -15.49-2.441c2.915-25.935 29.422-33.125 30.615-33.434zm91.122 225.028-12.1-1.828c-.972-7.351-1.726-19.93-.566-29.724.18-1.512.342-3.061.49-4.633 1.38-1.035 2.735-2.072 4.035-3.114 1.15 12.991 3.812 27.393 8.141 39.299zm-172.038-39.619a6 6 0 0 0 -3.921-3.874c-16.09-5.013-26.79-13.065-31.817-23.934-7.432-16.08-.137-33.583-.07-33.74a6 6 0 0 0 -2.49-7.576c-20.268-11.776-29.806-32.465-28.351-61.495a41.676 41.676 0 0 1 39.734-39.6c29.136-1.451 49.9 8.059 61.71 28.268a6.042 6.042 0 0 0 6.712 2.774c1.561-.405 38.4-9.311 54.038 40.571a6.042 6.042 0 0 0 4.427 4.063c.146.033 14.681 3.448 27.66 17.389 17.269 18.55 24.126 47.53 19.828 83.805-1.143 9.649-.638 21.142.2 29.281l-20.154-3.045a5.966 5.966 0 0 0 -1.923-4.022c-7.573-6.931-15.366-14.716-23.2-23.02 2.352-9.725 7.55-37.438-3.978-56.285a6 6 0 0 0 -10.237 6.261c6.975 11.4 5.915 28.167 4.151 39.107-16.314-18.085-32.479-37.819-46.9-56.267 3.148-9.451 10.192-35.781-1.4-54.739a6 6 0 1 0 -10.237 6.262c6.726 11 4.906 26.4 2.5 36.656-25.322-33.082-43.362-59.445-43.723-59.975a6 6 0 1 0 -9.915 6.76c.368.54 18.909 27.639 44.9 61.525-11.094.332-29.246-1.91-41.6-17.634a6 6 0 0 0 -9.436 7.414c14.656 18.655 35.393 22.225 49.124 22.225a77.178 77.178 0 0 0 10.648-.727c14.824 18.947 31.472 39.236 48.27 57.779-11.621 2.1-31.821 3.223-46.034-9.832a6 6 0 1 0 -8.117 8.837c12.261 11.263 27.437 14.311 40.28 14.311a92 92 0 0 0 23.3-3.116c5.2 5.508 10.388 10.787 15.509 15.756l-58.875-8.9c-.13-.019-.259-.034-.39-.046a62.518 62.518 0 0 0 -35.056 7.476 118.28 118.28 0 0 1 -15.167-28.693zm2.189 55.821c10.492-14.95 28.257-24.158 46.832-22.655l44.6 6.739v30.053a6 6 0 0 0 12 0v-28.24l121.607 18.382v17.276a6 6 0 0 0 12 0v-15.468l91.6 13.841a10.244 10.244 0 0 1 8.764 10.188 10.357 10.357 0 0 1 -8.83 10.2l-36.473 5.263v-4a6 6 0 0 0 -12 0v5.742l-94.371 13.635v-18.4a6 6 0 0 0 -12 0v20.132l-126.288 18.244v-32.032a6 6 0 1 0 -12 0v31.715a53.4 53.4 0 0 1 -35.641-22.479 57.344 57.344 0 0 0 6.621-15.669c2.579-10.112 3.406-25.441-6.421-42.467zm-50.55 65.256a5.346 5.346 0 0 1 -6.943-2.94 5.23 5.23 0 0 1 .04-4.036 5.284 5.284 0 0 1 2.927-2.851l24.2-9.777 11.1-.2a64.5 64.5 0 0 0 2.132 6.385zm-6.943-69.477a5.346 5.346 0 0 1 6.942-2.94l33.566 13.465a64.224 64.224 0 0 0 -2.214 6.51l-11.709-.235-23.632-9.915a5.286 5.286 0 0 1 -2.953-6.885zm-12.627 27.992 66.067 1.36a41.806 41.806 0 0 1 -.011 8.05l-66.049 1.181a5.3 5.3 0 0 1 -.007-10.591z"/></svg>