<svg id="Layer" style="fill:white;"  enable-background="new 0 0 64 64" height="512" viewBox="0 0 64 64" width="512" xmlns="http://www.w3.org/2000/svg"><path d="m50 8h-10c-2.206 0-4 1.794-4 4v10.889l-8.281-13.912c-.361-.606-1.014-.977-1.719-.977h-14c-1.104 0-2 .896-2 2v42c0 2.206 1.794 4 4 4h10c2.206 0 4-1.794 4-4v-10.889l8.281 13.912c.361.606 1.014.977 1.719.977h14c1.104 0 2-.896 2-2v-42c0-2.206-1.794-4-4-4zm-10 4h10v34.409l-10-16.8zm-16 40h-10v-34.409l10 16.8zm-8.672-40h9.535l23.809 40h-9.535z"/></svg>