<svg id="Capa_1" style="fill:white" enable-background="new 0 0 512 512" height="512" viewBox="0 0 512 512" width="512" xmlns="http://www.w3.org/2000/svg"><g><path d="m500.386 407.553-7.432-55.686h.848c2.162 0 4.219-.933 5.644-2.56 1.424-1.626 2.076-3.789 1.79-5.932l-9.61-72.007h2.176c2.162 0 4.219-.933 5.644-2.56 1.424-1.626 2.076-3.789 1.791-5.932l-19.301-144.621c-.895-6.701-6.668-11.755-13.429-11.755h-57.377c-6.763 0-12.536 5.055-13.43 11.756l-19.3 144.62c-.285 2.143.367 4.306 1.791 5.932 1.425 1.627 3.482 2.56 5.644 2.56h2.175l-9.609 72.007c-.285 2.143.367 4.306 1.791 5.932 1.425 1.627 3.482 2.56 5.644 2.56h.846l-7.412 55.542h-41.052c11.679-10.591 19.025-25.877 19.025-42.847 0-4.142-3.357-7.5-7.5-7.5h-11.525c11.678-10.591 19.025-25.877 19.025-42.847 0-4.142-3.357-7.5-7.5-7.5h-11.525c11.678-10.591 19.025-25.877 19.025-42.847 0-4.142-3.357-7.5-7.5-7.5h-24.616c9.557-19.789 14.58-41.587 14.58-63.765 0-80.861-65.786-146.647-146.647-146.647s-146.649 65.786-146.649 146.647c0 22.112 5.028 43.989 14.573 63.765h-24.608c-4.143 0-7.5 3.358-7.5 7.5 0 16.97 7.346 32.256 19.025 42.847h-11.525c-4.143 0-7.5 3.358-7.5 7.5 0 16.97 7.346 32.256 19.025 42.847h-11.525c-4.143 0-7.5 3.358-7.5 7.5 0 16.97 7.346 32.256 19.025 42.847h-34.422c-7.432 0-13.479 6.046-13.479 13.479v31.677c0 7.432 6.047 13.479 13.479 13.479h366.18c4.143 0 7.5-3.358 7.5-7.5s-3.357-7.5-7.5-7.5h-364.659v-28.635h478.802 3.198v28.635h-87.341c-4.143 0-7.5 3.358-7.5 7.5s3.357 7.5 7.5 7.5h88.861c7.433 0 13.479-6.047 13.479-13.479v-31.677c.001-6.799-5.063-12.422-11.613-13.335zm-422.596-151.304c-10.715-19.363-16.379-41.371-16.379-63.646 0-72.59 59.057-131.647 131.647-131.647s131.647 59.057 131.647 131.647c0 22.381-5.677 44.334-16.449 63.765h-32.629c14.088-18.202 21.75-40.492 21.75-63.765 0-57.522-46.798-104.319-104.319-104.319s-104.319 46.797-104.319 104.319c0 23.32 7.658 45.569 21.752 63.765h-32.643c-.021-.039-.036-.08-.058-.119zm52.263.119c-.64-.684-.896-1.032-1.398-1.551-16.175-16.738-24.915-38.931-24.915-62.213 0-49.251 40.068-89.319 89.319-89.319s89.319 40.068 89.319 89.319c0 22.833-10.008 43.353-24.248 61.186-.697.872-1.168 1.661-1.881 2.579h-126.196zm-85.52 65.347h77.64c4.143 0 7.5-3.358 7.5-7.5s-3.357-7.5-7.5-7.5h-35.45c-21.067 0-38.633-15.285-42.19-35.347h297.052c-3.557 20.062-21.122 35.347-42.19 35.347h-147.222c-4.143 0-7.5 3.358-7.5 7.5s3.357 7.5 7.5 7.5h189.412c-3.557 20.062-21.122 35.347-42.19 35.347h-212.672c-21.068-.001-38.633-15.285-42.19-35.347zm42.19 85.694c-21.067 0-38.633-15.285-42.19-35.347h42.19 212.672 42.19c-3.557 20.062-21.122 35.347-42.19 35.347zm325.677-285.909h54.836l17.998 134.868h-90.832zm64.093 149.868 8.741 65.499h-90.832l8.741-65.499zm-82.091 136.041 7.413-55.542h76.007l7.412 55.542z"/></g></svg>